<?xml version="1.0" encoding="UTF-8" standalone="no"?>
<svg
   xmlns:dc="http://purl.org/dc/elements/1.1/"
   xmlns:cc="http://creativecommons.org/ns#"
   xmlns:rdf="http://www.w3.org/1999/02/22-rdf-syntax-ns#"
   xmlns:svg="http://www.w3.org/2000/svg"
   xmlns="http://www.w3.org/2000/svg"
   xmlns:sodipodi="http://sodipodi.sourceforge.net/DTD/sodipodi-0.dtd"
   xmlns:inkscape="http://www.inkscape.org/namespaces/inkscape"
   version="1.0"
   id="Calque_5"
   x="0px"
   y="0px"
   xml:space="preserve"
   inkscape:version="0.48.3.1 r9886"
   width="512"
   height="512"
   sodipodi:docname="logo.svg"><metadata
   id="metadata13"><rdf:RDF><cc:Work
       rdf:about=""><dc:format>image/svg+xml</dc:format><dc:type
         rdf:resource="http://purl.org/dc/dcmitype/StillImage" /></cc:Work></rdf:RDF></metadata><defs
   id="defs11">

</defs><sodipodi:namedview
   pagecolor="#ffffff"
   bordercolor="#666666"
   borderopacity="1"
   objecttolerance="10"
   gridtolerance="10"
   guidetolerance="10"
   inkscape:pageopacity="0"
   inkscape:pageshadow="2"
   inkscape:window-width="1920"
   inkscape:window-height="1029"
   id="namedview9"
   showgrid="false"
   inkscape:zoom="1.7940591"
   inkscape:cx="449.30266"
   inkscape:cy="220.9105"
   inkscape:window-x="0"
   inkscape:window-y="1"
   inkscape:window-maximized="1"
   inkscape:current-layer="Calque_5" />


<g
   id="g3031"><g
     transform="matrix(1.1809114,0,0,1.1809114,-152.08663,-150.57943)"
     style="opacity:0.93000034;fill:#000000"
     id="g3271"><path
       d="m 558.98655,340.43017 c 0.118,0.703 -0.812,0.809 -1.301,1.039 -1.729,0.791 -4.143,1.18 -6.638,1.561 -6.937,1.051 -15.454,1.873 -19.516,-2.342 -2.095,-2.174 -2.38,-5.357 -6.242,-5.721 -2.85,-0.281 -6.182,0.877 -9.107,1.818 -1.155,0.367 -2.35,0.789 -3.899,1.564 -1.28,0.633 -3.235,1.496 -3.772,0.127 -0.776,-1.988 3.213,-3.152 4.808,-4.037 0.926,-0.51 5.077,-2.635 4.689,-4.42 -0.339,-1.551 -4.648,-0.711 -6.375,-0.393 -4.638,0.85 -8.357,1.664 -12.618,2.736 -2.121,0.523 -4.579,0.881 -6.121,1.557 -1.439,0.635 -2.908,2.525 -4.291,3.773 -3.024,2.723 -5.509,4.361 -9.626,6.508 -1.583,0.822 -5.13,2.818 -7.022,1.17 -0.917,-0.799 -1.258,-2.396 -1.042,-4.035 0.236,-1.82 1.748,-3.461 1.303,-4.68 -0.852,-2.342 -8.09,0.457 -9.497,0.908 -6.369,2 -11.635,4.285 -17.959,6.375 -4.427,1.461 -13.289,4.734 -15.089,-1.043 -0.93,-2.967 0.829,-5.006 0.911,-7.674 -1.646,-0.775 -3.301,0.479 -4.686,1.168 -6.951,3.494 -14.97,6.916 -23.549,9.242 -3.539,0.961 -7.184,1.369 -10.661,2.338 -2.665,0.74 -5.052,1.75 -8.854,1.428 -1.773,-0.15 -4.562,-0.756 -6.239,-1.691 -1.1,-0.605 -2.457,-2.678 -3.901,-2.855 -1.729,-0.225 -5.897,1.996 -7.677,2.6 -7.414,2.516 -17.23,3.91 -26.146,4.557 -3.876,0.273 -8.74,0.455 -11.321,-0.912 -1.081,-0.576 -1.967,-2.674 -3.515,-2.861 -1.737,-0.217 -3.902,1.42 -5.333,2.209 -3.409,1.869 -6.189,3.537 -9.889,5.074 -1.685,0.695 -4.371,1.539 -6.117,1.041 -1.997,-0.576 -2.922,-3.203 -2.729,-5.596 0.145,-1.777 1.511,-3.625 0.782,-5.072 -2.326,-0.184 -3.908,1.75 -5.464,2.861 -8.349,5.936 -16.607,11.219 -25.756,17.043 -1.77,1.123 -3.503,2.15 -5.468,3.123 -2.092,1.029 -4.173,2.117 -6.111,2.344 -4.846,0.547 -7.472,-3.74 -5.595,-7.939 1.101,-2.465 3.609,-4.559 5.851,-6.502 8.844,-7.682 18.875,-13.342 29.275,-19.904 5.397,-3.406 10.051,-5.328 16.655,-7.938 2.442,-0.971 6.69,-3.432 9.36,-2.863 1.416,0.299 1.451,2.205 2.998,2.344 1.381,0.115 4.979,-4.201 6.374,-2.344 1.385,1.848 -3.543,5.355 -4.427,6.25 -4.021,4.018 -7.315,6.988 -11.19,11.184 -1.63,1.768 -4.113,4.236 -4.554,6.635 -0.317,1.736 0.183,3.131 1.172,3.645 4.71,-0.398 8.787,-2.949 12.883,-4.947 7.752,-3.777 15.342,-8.477 23.937,-11.576 4.297,-1.557 8.832,-3.363 14.439,-3.25 4.922,0.098 9.616,3.299 7.288,8.326 -0.306,0.654 -1.165,1.656 -0.782,2.473 0.562,1.201 3.39,0.164 4.945,-0.389 8.119,-2.939 14.615,-7.186 21.336,-11.711 1.811,-1.232 5.922,-4.352 9.105,-4.033 2.072,0.209 3.35,2.084 3.514,3.773 0.162,1.725 -0.64,3.971 -1.437,5.855 -0.494,1.16 -2.487,3.688 -1.815,5.066 0.7,1.457 4.411,0.062 5.854,-0.387 11.761,-3.705 21.214,-8.223 30.569,-14.051 0.748,-0.467 4.188,-2.773 4.942,-0.652 0.391,1.07 -0.808,2.061 -1.69,3.254 -0.811,1.088 -1.351,2.174 -1.951,3.121 -1.215,1.916 -3.541,4.631 -3.119,7.158 0.66,3.951 10.218,0.346 12.356,-0.391 7.104,-2.449 12.996,-5.098 20.425,-7.154 3.204,-0.893 9.906,-2.727 10.801,1.039 0.579,2.426 -2.593,5.215 -1.301,6.764 1.288,1.545 4.992,-1.039 6.112,-1.688 1.406,-0.824 4.828,-2.4 4.424,-4.037 -0.294,-1.186 -2.74,-0.525 -4.424,-0.908 -2.254,-0.516 -4.461,-2.615 -3.51,-5.984 0.785,-2.797 4.756,-4.617 7.674,-5.855 3.324,-1.418 10.7,-4.018 11.318,1.562 0.168,1.51 -0.943,2.992 -0.256,4.293 0.666,1.268 3.733,0.344 4.677,0.129 4.657,-1.053 9.414,-2.643 14.188,-2.992 2.903,-0.213 5.527,0.021 6.631,1.562 0.599,0.828 0.631,3.236 1.171,3.773 0.543,0.529 2.034,0.496 2.992,0.648 1.011,0.164 2.239,0.451 2.865,0.779 2.948,1.568 3.519,5.854 7.15,7.156 6.702,2.406 16.457,-0.614 23.808,-0.126 z m -69.084,-8.722 c 2.581,-1.281 5.986,-7.896 0.523,-7.156 -3.286,0.451 -6.72,2.102 -8.978,3.775 -1.037,0.764 -2.352,1.916 -2.084,3.254 0.288,1.459 2.795,1.342 4.943,1.172 1.98,-0.164 4.137,-0.323 5.596,-1.045 z m -91.974,2.474 c 0.44,-2.207 -0.169,-3.467 -2.221,-3.121 -0.072,0.01 -0.179,-0.031 -0.254,0 -3.595,1.109 -6.316,4.008 -9.628,6.109 -1.405,0.891 -3.003,2.02 -4.812,3.127 -1.57,0.953 -4.631,1.85 -4.558,3.379 0.076,1.484 3.071,2.18 5.078,2.344 2.696,0.213 5.93,0.367 8.065,-0.26 3.868,-1.144 7.604,-7.955 8.33,-11.578 z m -39.162,8.457 c 0.738,-0.771 2.058,-2.541 1.828,-4.035 -0.312,-1.943 -3.395,-2.59 -5.731,-2.475 -5.026,0.25 -10.024,2.117 -14.698,4.039 -2.146,0.875 -4.337,1.793 -6.375,2.729 -2.026,0.926 -4.523,1.609 -5.461,3.645 1.17,1.309 3.323,1.678 5.198,2.082 6.275,1.328 11.668,0.104 16.918,-1.691 3.376,-1.169 6.397,-2.295 8.321,-4.294 z m -47.484,-9.369 c 0.749,-0.602 3.23,-2.191 2.86,-3.381 -0.252,-0.832 -1.408,-0.684 -2.47,-0.518 -3.044,0.447 -6.051,1.916 -8.845,3.121 -8.753,3.75 -16.027,8.102 -23.421,12.746 -4.689,2.943 -10.293,6.453 -14.439,9.627 -3.036,2.328 -6.91,5.232 -9.234,8.717 -0.726,1.082 -2.074,3.199 -1.173,4.424 0.691,0.934 3.28,0.531 4.812,0 1.821,-0.635 2.917,-1.24 4.296,-1.953 8.223,-4.246 15.536,-9.354 22.766,-14.309 4.973,-3.414 9.583,-6.592 14.44,-10.277 3.386,-2.574 6.933,-5.417 10.408,-8.197 z"
       id="path3"
       style="fill:#000000"
       inkscape:connector-curvature="0" /><path
       d="m 535.95755,271.08717 c 1.173,1.031 2.788,3.092 2.341,5.203 -0.867,4.131 -9.107,5.623 -13.789,6.504 -2.722,0.512 -5.627,0.938 -8.844,1.301 -3.057,0.342 -6.283,0.662 -9.239,0.91 -3.067,0.258 -6.146,0.77 -9.238,0.91 -9.329,0.422 -18.971,1.09 -28.359,1.955 -12.336,1.127 -24.726,2.752 -36.945,3.643 -12.327,0.889 -24.398,2.863 -36.037,4.424 -11.671,1.557 -23.662,3.451 -35.25,5.332 -5.784,0.936 -11.573,2.072 -17.307,2.996 -2.876,0.457 -5.737,0.945 -8.59,1.561 -2.814,0.602 -5.694,0.932 -8.455,1.559 -16.518,3.746 -33.435,6.924 -49.826,11.057 -5.523,1.393 -11.269,2.182 -16.134,4.037 -1.581,0.596 -3.183,2.221 -4.813,3.641 -14.79,12.854 -29.791,25.66 -44.623,38.375 -5.458,4.686 -10.822,9.377 -15.87,14.314 -2.537,2.484 -5.438,4.65 -7.938,7.154 -7.47,7.473 -15.624,14.582 -23.159,22.113 -7.526,7.521 -14.758,15.371 -22.895,22.379 -2.027,1.746 -4.155,3.283 -6.377,4.941 -0.639,0.479 -1.271,1.398 -2.209,1.301 -1.042,-2.027 1.318,-3.291 2.342,-4.162 8.953,-7.646 17.389,-16.217 25.759,-24.588 9.556,-9.557 19.487,-18.957 29.4,-28.096 18.706,-17.26 38.442,-33.482 57.894,-50.092 1.22,-1.039 2.917,-2.141 3.256,-3.902 -1.768,-1.076 -4.366,0.076 -6.247,0.521 -6.042,1.418 -12.11,3.418 -18.994,4.033 2.366,-1.482 5.112,-2.07 7.81,-2.859 2.599,-0.771 5.158,-1.92 7.934,-2.607 2.724,-0.676 5.605,-1.406 8.454,-2.209 2.77,-0.787 5.764,-1.197 8.193,-2.34 1.529,-0.721 2.735,-2.189 4.302,-3.512 4.237,-3.609 8.36,-7.244 12.482,-10.932 5.46,-4.896 11.151,-10.039 16.265,-14.961 9.143,-8.812 19.125,-16.955 27.319,-27.318 0.42,-0.533 2.387,-4.211 3.644,-3.775 2.108,0.729 -0.216,3.846 -0.78,4.555 -7.443,9.326 -16.361,16.957 -24.979,25.109 -2.449,2.314 -5.133,4.439 -7.544,6.766 -2.43,2.334 -4.896,4.738 -7.417,6.891 -3.83,3.262 -7.498,6.721 -11.32,10.152 -1.181,1.055 -2.966,2.074 -3.121,3.9 1.146,0.992 2.723,0.291 3.9,0 6.458,-1.613 13.136,-3.051 19.646,-4.68 13.104,-3.299 26.604,-5.779 40.199,-8.455 16.172,-3.199 33.001,-5.699 49.96,-8.461 5.631,-0.922 11.265,-2.021 16.912,-2.469 2.834,-0.229 5.684,-0.893 8.583,-1.17 8.597,-0.842 17.38,-2.209 26.277,-2.994 5.841,-0.52 11.723,-1.438 17.699,-1.822 5.876,-0.377 11.745,-1.523 17.562,-1.822 8.681,-0.449 18.059,-1.414 27.316,-1.953 2.925,-0.172 5.851,-0.779 8.716,-0.91 8.643,-0.389 18.127,-1.219 25.762,-3.508 2.288,-0.689 5.905,-1.822 5.981,-3.641 0.082,-1.875 -3.438,-3.74 -5.466,-4.688 -6.849,-3.219 -15.577,-5.311 -23.549,-6.895 -5.732,-1.143 -11.489,-2.225 -17.302,-2.992 -2.887,-0.393 -5.805,-0.889 -8.714,-1.432 -3.01,-0.572 -6.148,-0.484 -9.235,-0.912 -11.993,-1.664 -24.646,-2.18 -37.466,-3.123 -12.796,-0.941 -26.312,-0.758 -39.426,-0.91 -9.84,-0.115 -19.701,0.119 -29.66,0.52 -9.631,0.385 -19.595,0.973 -28.877,1.561 -6.358,0.404 -12.62,0.965 -18.864,1.434 -6.17,0.461 -12.594,0.525 -19.124,1.174 -1.467,0.137 -2.898,0.602 -4.423,0.646 -4.783,0.146 -9.346,0.877 -13.925,1.301 -10.328,0.941 -21.058,2.434 -31.743,3.775 -1.723,0.209 -3.573,0.23 -3.642,-1.172 -0.086,-1.914 4.543,-1.879 6.242,-2.084 7.689,-0.943 14.997,-1.816 22.507,-2.34 2.478,-0.18 4.915,-0.709 7.417,-0.91 22.979,-1.881 45.501,-3.666 69.341,-5.203 2.396,-0.156 5.131,-0.346 7.81,-0.525 15.775,-1.074 34.697,-0.645 51.775,-0.645 10.688,0 20.051,0.268 29.795,1.17 5.068,0.463 10.202,0.586 15.353,1.037 20.69,1.832 39.011,3.936 57.501,8.197 4.259,0.977 8.609,2.234 12.875,3.512 4.18,1.248 8.664,2.974 11.191,5.205 z"
       id="path5"
       style="fill:#000000"
       inkscape:connector-curvature="0" /><path
       d="m 459.06855,315.32117 c 1.413,-0.566 2.386,3.158 1.045,3.51 -1.285,0.33 -2.608,-2.897 -1.045,-3.51 z"
       id="path7"
       style="fill:#000000"
       inkscape:connector-curvature="0" /></g><g
     id="text2987"
     style="font-size:26.62696648px;font-style:normal;font-variant:normal;font-weight:bold;font-stretch:normal;line-height:125%;letter-spacing:0px;word-spacing:0px;fill:#000000;fill-opacity:1;stroke:none;font-family:BankGothic Md BT;-inkscape-font-specification:BankGothic Md BT Bold"><path
       id="path3003"
       style=""
       d="m 207.71924,285.94408 -8.61997,0 0,8.69797 8.61997,0 0,-2.95133 3.19835,0.66308 0,1.62518 c -2e-5,1.25681 -0.23838,2.1149 -0.71508,2.57428 -0.46807,0.45072 -1.36517,0.67608 -2.6913,0.67608 l -8.20391,0 c -1.33482,0 -2.23626,-0.22536 -2.7043,-0.67608 -0.46806,-0.45938 -0.70208,-1.31747 -0.70208,-2.57428 l 0,-7.24181 c 0,-1.24813 0.23402,-2.10189 0.70208,-2.56128 0.46804,-0.45938 1.36948,-0.68907 2.7043,-0.68908 l 8.20391,0 c 1.32613,1e-5 2.22323,0.2297 2.6913,0.68908 0.4767,0.45939 0.71506,1.31315 0.71508,2.56128 l 0,1.30015 -3.19835,0.50705 0,-2.60029" /><path
       id="path3005"
       style=""
       d="m 217.22329,286.73717 c 0,-1.24813 0.23403,-2.10189 0.70208,-2.56128 0.46805,-0.45938 1.36948,-0.68907 2.7043,-0.68908 l 10.11513,0 c 1.3348,1e-5 2.23623,0.2297 2.7043,0.68908 0.46803,0.45939 0.70206,1.31315 0.70208,2.56128 l 0,7.24181 c -2e-5,1.25681 -0.23405,2.1149 -0.70208,2.57428 -0.46807,0.45072 -1.3695,0.67608 -2.7043,0.67608 l -10.11513,0 c -1.33482,0 -2.23625,-0.22536 -2.7043,-0.67608 -0.46805,-0.45938 -0.70208,-1.31747 -0.70208,-2.57428 l 0,-7.24181 m 3.19836,7.90488 10.54418,0 0,-8.69797 -10.54418,0 0,8.69797" /><path
       id="path3007"
       style=""
       d="m 240.88593,297.22934 0,-13.74253 2.58729,0 6.47472,8.30792 6.33171,-8.30792 2.56128,0 0,13.74253 -2.96433,0 0,-8.48995 c -2e-5,-0.16467 0.009,-0.3727 0.026,-0.62407 0.026,-0.25135 0.0563,-0.53305 0.091,-0.84509 -0.17337,0.35538 -0.32505,0.65008 -0.45505,0.8841 -0.13003,0.22537 -0.24704,0.41172 -0.35104,0.55906 l -5.16157,6.86477 -0.63707,0 -5.17458,-6.89077 c -0.19069,-0.26002 -0.35538,-0.50272 -0.49405,-0.72808 -0.13002,-0.23402 -0.23837,-0.45938 -0.32504,-0.67608 0.026,0.28604 0.0433,0.54607 0.052,0.78009 0.0173,0.23403 0.026,0.45939 0.026,0.67607 l 0,8.48995 -2.58729,0" /><path
       id="path3009"
       style=""
       d="m 265.53668,297.22934 0,-13.74253 2.58729,0 6.47472,8.30792 6.33171,-8.30792 2.56128,0 0,13.74253 -2.96433,0 0,-8.48995 c -2e-5,-0.16467 0.009,-0.3727 0.026,-0.62407 0.026,-0.25135 0.0563,-0.53305 0.091,-0.84509 -0.17337,0.35538 -0.32505,0.65008 -0.45505,0.8841 -0.13003,0.22537 -0.24704,0.41172 -0.35104,0.55906 l -5.16157,6.86477 -0.63707,0 -5.17458,-6.89077 c -0.19069,-0.26002 -0.35538,-0.50272 -0.49405,-0.72808 -0.13002,-0.23402 -0.23837,-0.45938 -0.32504,-0.67608 0.026,0.28604 0.0433,0.54607 0.052,0.78009 0.0173,0.23403 0.026,0.45939 0.026,0.67607 l 0,8.48995 -2.58729,0" /><path
       id="path3011"
       style=""
       d="m 293.41178,283.48681 0,11.15524 9.11402,0 0,-11.15524 3.18535,0 0,10.49217 c -2e-5,1.25681 -0.23404,2.1149 -0.70208,2.57428 -0.46807,0.45072 -1.3695,0.67608 -2.7043,0.67608 l -8.68497,0 c -1.32615,0 -2.22758,-0.22536 -2.7043,-0.67608 -0.46805,-0.45938 -0.70208,-1.31747 -0.70208,-2.57428 l 0,-10.49217 3.19836,0" /><path
       id="path3013"
       style=""
       d="m 312.70593,297.22934 0,-13.74253 2.18424,0 9.67308,8.0999 c 0.32936,0.2687 0.61972,0.5244 0.8711,0.76709 0.25134,0.23403 0.48104,0.47672 0.68908,0.72808 -0.052,-0.77142 -0.0867,-1.31748 -0.10402,-1.63818 -0.0174,-0.3207 -0.026,-0.56773 -0.026,-0.74109 l 0,-7.2158 2.87332,0 0,13.74253 -2.18424,0 -10.08913,-8.48995 c -0.2427,-0.21668 -0.45505,-0.4117 -0.63707,-0.58506 -0.18202,-0.17334 -0.35104,-0.35103 -0.50705,-0.53306 0.0433,0.42472 0.0737,0.82777 0.091,1.20913 0.026,0.37272 0.039,0.69776 0.039,0.97511 l 0,7.42383 -2.87332,0" /><path
       id="path3015"
       style=""
       d="m 335.87451,297.22934 0,-13.74253 3.19836,0 0,13.74253 -3.19836,0" /><path
       id="path3017"
       style=""
       d="m 357.65194,285.94408 -8.61996,0 0,8.69797 8.61996,0 0,-2.95133 3.19836,0.66308 0,1.62518 c -2e-5,1.25681 -0.23838,2.1149 -0.71508,2.57428 -0.46807,0.45072 -1.36517,0.67608 -2.6913,0.67608 l -8.20391,0 c -1.33482,0 -2.23626,-0.22536 -2.7043,-0.67608 -0.46806,-0.45938 -0.70209,-1.31747 -0.70208,-2.57428 l 0,-7.24181 c -1e-5,-1.24813 0.23402,-2.10189 0.70208,-2.56128 0.46804,-0.45938 1.36948,-0.68907 2.7043,-0.68908 l 8.20391,0 c 1.32613,1e-5 2.22323,0.2297 2.6913,0.68908 0.4767,0.45939 0.71506,1.31315 0.71508,2.56128 l 0,1.30015 -3.19836,0.50705 0,-2.60029" /><path
       id="path3019"
       style=""
       d="m 370.49736,291.74273 6.01967,0 -2.96433,-5.59062 -3.05534,5.59062 m -6.14968,5.48661 7.77486,-13.74253 3.08135,0 7.87887,13.74253 -3.5884,0 -1.65118,-3.00333 -8.71097,0 -1.59918,3.00333 -3.18535,0" /><path
       id="path3021"
       style=""
       d="m 392.09277,285.94408 0,11.28526 -3.19835,0 0,-11.28526 -6.30571,0 0,-2.45727 15.83577,0 0,2.45727 -6.33171,0" /><path
       id="path3023"
       style=""
       d="m 402.33792,297.22934 0,-13.74253 3.19836,0 0,13.74253 -3.19836,0" /><path
       id="path3025"
       style=""
       d="m 412.29702,286.73717 c 0,-1.24813 0.23402,-2.10189 0.70208,-2.56128 0.46805,-0.45938 1.36948,-0.68907 2.7043,-0.68908 l 10.11513,0 c 1.3348,1e-5 2.23623,0.2297 2.7043,0.68908 0.46803,0.45939 0.70206,1.31315 0.70208,2.56128 l 0,7.24181 c -2e-5,1.25681 -0.23405,2.1149 -0.70208,2.57428 -0.46807,0.45072 -1.3695,0.67608 -2.7043,0.67608 l -10.11513,0 c -1.33482,0 -2.23625,-0.22536 -2.7043,-0.67608 -0.46806,-0.45938 -0.70208,-1.31747 -0.70208,-2.57428 l 0,-7.24181 m 3.19836,7.90488 10.54417,0 0,-8.69797 -10.54417,0 0,8.69797" /><path
       id="path3027"
       style=""
       d="m 435.95965,297.22934 0,-13.74253 2.18425,0 9.67307,8.0999 c 0.32936,0.2687 0.61972,0.5244 0.8711,0.76709 0.25135,0.23403 0.48104,0.47672 0.68908,0.72808 -0.052,-0.77142 -0.0867,-1.31748 -0.10401,-1.63818 -0.0174,-0.3207 -0.026,-0.56773 -0.026,-0.74109 l 0,-7.2158 2.87332,0 0,13.74253 -2.18424,0 -10.08912,-8.48995 c -0.2427,-0.21668 -0.45506,-0.4117 -0.63707,-0.58506 -0.18203,-0.17334 -0.35105,-0.35103 -0.50706,-0.53306 0.0433,0.42472 0.0737,0.82777 0.091,1.20913 0.026,0.37272 0.039,0.69776 0.039,0.97511 l 0,7.42383 -2.87332,0" /><path
       id="path3029"
       style=""
       d="m 471.03756,285.89208 -8.997,0 0,2.95133 8.56795,0 c 1.34347,0 2.24924,0.2297 2.71731,0.68907 0.4767,0.45939 0.71506,1.31315 0.71508,2.56129 l 0,1.88521 c -2e-5,1.24814 -0.23838,2.1019 -0.71508,2.56128 -0.46807,0.45939 -1.37384,0.68908 -2.71731,0.68908 l -8.48994,0 c -1.34349,0 -2.25359,-0.22969 -2.73031,-0.68908 -0.46805,-0.45938 -0.70208,-1.31314 -0.70207,-2.56128 l 0,-0.37704 2.82131,-0.58507 0,1.62518 9.71208,0 0,-3.13335 -8.56795,0 c -1.33482,1e-5 -2.23626,-0.22968 -2.7043,-0.68907 -0.46806,-0.45938 -0.70209,-1.31314 -0.70208,-2.56129 l 0,-1.52117 c -10e-6,-1.24813 0.23402,-2.10189 0.70208,-2.56128 0.46804,-0.45938 1.36948,-0.68907 2.7043,-0.68908 l 7.80087,0 c 1.29146,1e-5 2.17989,0.22104 2.66529,0.66307 0.49404,0.44206 0.74107,1.22648 0.74109,2.35326 l 0,0.28604 -2.82132,0.66307 0,-1.56017" /></g></g><g
   id="g3052"><g
     id="g3054"
     style="opacity:0.93000034;fill:#000000"
     transform="matrix(1.1809114,0,0,1.1809114,-152.08663,-150.57943)"><path
       inkscape:connector-curvature="0"
       style="fill:#000000"
       id="path3056"
       d="m 558.98655,340.43017 c 0.118,0.703 -0.812,0.809 -1.301,1.039 -1.729,0.791 -4.143,1.18 -6.638,1.561 -6.937,1.051 -15.454,1.873 -19.516,-2.342 -2.095,-2.174 -2.38,-5.357 -6.242,-5.721 -2.85,-0.281 -6.182,0.877 -9.107,1.818 -1.155,0.367 -2.35,0.789 -3.899,1.564 -1.28,0.633 -3.235,1.496 -3.772,0.127 -0.776,-1.988 3.213,-3.152 4.808,-4.037 0.926,-0.51 5.077,-2.635 4.689,-4.42 -0.339,-1.551 -4.648,-0.711 -6.375,-0.393 -4.638,0.85 -8.357,1.664 -12.618,2.736 -2.121,0.523 -4.579,0.881 -6.121,1.557 -1.439,0.635 -2.908,2.525 -4.291,3.773 -3.024,2.723 -5.509,4.361 -9.626,6.508 -1.583,0.822 -5.13,2.818 -7.022,1.17 -0.917,-0.799 -1.258,-2.396 -1.042,-4.035 0.236,-1.82 1.748,-3.461 1.303,-4.68 -0.852,-2.342 -8.09,0.457 -9.497,0.908 -6.369,2 -11.635,4.285 -17.959,6.375 -4.427,1.461 -13.289,4.734 -15.089,-1.043 -0.93,-2.967 0.829,-5.006 0.911,-7.674 -1.646,-0.775 -3.301,0.479 -4.686,1.168 -6.951,3.494 -14.97,6.916 -23.549,9.242 -3.539,0.961 -7.184,1.369 -10.661,2.338 -2.665,0.74 -5.052,1.75 -8.854,1.428 -1.773,-0.15 -4.562,-0.756 -6.239,-1.691 -1.1,-0.605 -2.457,-2.678 -3.901,-2.855 -1.729,-0.225 -5.897,1.996 -7.677,2.6 -7.414,2.516 -17.23,3.91 -26.146,4.557 -3.876,0.273 -8.74,0.455 -11.321,-0.912 -1.081,-0.576 -1.967,-2.674 -3.515,-2.861 -1.737,-0.217 -3.902,1.42 -5.333,2.209 -3.409,1.869 -6.189,3.537 -9.889,5.074 -1.685,0.695 -4.371,1.539 -6.117,1.041 -1.997,-0.576 -2.922,-3.203 -2.729,-5.596 0.145,-1.777 1.511,-3.625 0.782,-5.072 -2.326,-0.184 -3.908,1.75 -5.464,2.861 -8.349,5.936 -16.607,11.219 -25.756,17.043 -1.77,1.123 -3.503,2.15 -5.468,3.123 -2.092,1.029 -4.173,2.117 -6.111,2.344 -4.846,0.547 -7.472,-3.74 -5.595,-7.939 1.101,-2.465 3.609,-4.559 5.851,-6.502 8.844,-7.682 18.875,-13.342 29.275,-19.904 5.397,-3.406 10.051,-5.328 16.655,-7.938 2.442,-0.971 6.69,-3.432 9.36,-2.863 1.416,0.299 1.451,2.205 2.998,2.344 1.381,0.115 4.979,-4.201 6.374,-2.344 1.385,1.848 -3.543,5.355 -4.427,6.25 -4.021,4.018 -7.315,6.988 -11.19,11.184 -1.63,1.768 -4.113,4.236 -4.554,6.635 -0.317,1.736 0.183,3.131 1.172,3.645 4.71,-0.398 8.787,-2.949 12.883,-4.947 7.752,-3.777 15.342,-8.477 23.937,-11.576 4.297,-1.557 8.832,-3.363 14.439,-3.25 4.922,0.098 9.616,3.299 7.288,8.326 -0.306,0.654 -1.165,1.656 -0.782,2.473 0.562,1.201 3.39,0.164 4.945,-0.389 8.119,-2.939 14.615,-7.186 21.336,-11.711 1.811,-1.232 5.922,-4.352 9.105,-4.033 2.072,0.209 3.35,2.084 3.514,3.773 0.162,1.725 -0.64,3.971 -1.437,5.855 -0.494,1.16 -2.487,3.688 -1.815,5.066 0.7,1.457 4.411,0.062 5.854,-0.387 11.761,-3.705 21.214,-8.223 30.569,-14.051 0.748,-0.467 4.188,-2.773 4.942,-0.652 0.391,1.07 -0.808,2.061 -1.69,3.254 -0.811,1.088 -1.351,2.174 -1.951,3.121 -1.215,1.916 -3.541,4.631 -3.119,7.158 0.66,3.951 10.218,0.346 12.356,-0.391 7.104,-2.449 12.996,-5.098 20.425,-7.154 3.204,-0.893 9.906,-2.727 10.801,1.039 0.579,2.426 -2.593,5.215 -1.301,6.764 1.288,1.545 4.992,-1.039 6.112,-1.688 1.406,-0.824 4.828,-2.4 4.424,-4.037 -0.294,-1.186 -2.74,-0.525 -4.424,-0.908 -2.254,-0.516 -4.461,-2.615 -3.51,-5.984 0.785,-2.797 4.756,-4.617 7.674,-5.855 3.324,-1.418 10.7,-4.018 11.318,1.562 0.168,1.51 -0.943,2.992 -0.256,4.293 0.666,1.268 3.733,0.344 4.677,0.129 4.657,-1.053 9.414,-2.643 14.188,-2.992 2.903,-0.213 5.527,0.021 6.631,1.562 0.599,0.828 0.631,3.236 1.171,3.773 0.543,0.529 2.034,0.496 2.992,0.648 1.011,0.164 2.239,0.451 2.865,0.779 2.948,1.568 3.519,5.854 7.15,7.156 6.702,2.406 16.457,-0.614 23.808,-0.126 z m -69.084,-8.722 c 2.581,-1.281 5.986,-7.896 0.523,-7.156 -3.286,0.451 -6.72,2.102 -8.978,3.775 -1.037,0.764 -2.352,1.916 -2.084,3.254 0.288,1.459 2.795,1.342 4.943,1.172 1.98,-0.164 4.137,-0.323 5.596,-1.045 z m -91.974,2.474 c 0.44,-2.207 -0.169,-3.467 -2.221,-3.121 -0.072,0.01 -0.179,-0.031 -0.254,0 -3.595,1.109 -6.316,4.008 -9.628,6.109 -1.405,0.891 -3.003,2.02 -4.812,3.127 -1.57,0.953 -4.631,1.85 -4.558,3.379 0.076,1.484 3.071,2.18 5.078,2.344 2.696,0.213 5.93,0.367 8.065,-0.26 3.868,-1.144 7.604,-7.955 8.33,-11.578 z m -39.162,8.457 c 0.738,-0.771 2.058,-2.541 1.828,-4.035 -0.312,-1.943 -3.395,-2.59 -5.731,-2.475 -5.026,0.25 -10.024,2.117 -14.698,4.039 -2.146,0.875 -4.337,1.793 -6.375,2.729 -2.026,0.926 -4.523,1.609 -5.461,3.645 1.17,1.309 3.323,1.678 5.198,2.082 6.275,1.328 11.668,0.104 16.918,-1.691 3.376,-1.169 6.397,-2.295 8.321,-4.294 z m -47.484,-9.369 c 0.749,-0.602 3.23,-2.191 2.86,-3.381 -0.252,-0.832 -1.408,-0.684 -2.47,-0.518 -3.044,0.447 -6.051,1.916 -8.845,3.121 -8.753,3.75 -16.027,8.102 -23.421,12.746 -4.689,2.943 -10.293,6.453 -14.439,9.627 -3.036,2.328 -6.91,5.232 -9.234,8.717 -0.726,1.082 -2.074,3.199 -1.173,4.424 0.691,0.934 3.28,0.531 4.812,0 1.821,-0.635 2.917,-1.24 4.296,-1.953 8.223,-4.246 15.536,-9.354 22.766,-14.309 4.973,-3.414 9.583,-6.592 14.44,-10.277 3.386,-2.574 6.933,-5.417 10.408,-8.197 z" /><path
       inkscape:connector-curvature="0"
       style="fill:#000000"
       id="path3058"
       d="m 535.95755,271.08717 c 1.173,1.031 2.788,3.092 2.341,5.203 -0.867,4.131 -9.107,5.623 -13.789,6.504 -2.722,0.512 -5.627,0.938 -8.844,1.301 -3.057,0.342 -6.283,0.662 -9.239,0.91 -3.067,0.258 -6.146,0.77 -9.238,0.91 -9.329,0.422 -18.971,1.09 -28.359,1.955 -12.336,1.127 -24.726,2.752 -36.945,3.643 -12.327,0.889 -24.398,2.863 -36.037,4.424 -11.671,1.557 -23.662,3.451 -35.25,5.332 -5.784,0.936 -11.573,2.072 -17.307,2.996 -2.876,0.457 -5.737,0.945 -8.59,1.561 -2.814,0.602 -5.694,0.932 -8.455,1.559 -16.518,3.746 -33.435,6.924 -49.826,11.057 -5.523,1.393 -11.269,2.182 -16.134,4.037 -1.581,0.596 -3.183,2.221 -4.813,3.641 -14.79,12.854 -29.791,25.66 -44.623,38.375 -5.458,4.686 -10.822,9.377 -15.87,14.314 -2.537,2.484 -5.438,4.65 -7.938,7.154 -7.47,7.473 -15.624,14.582 -23.159,22.113 -7.526,7.521 -14.758,15.371 -22.895,22.379 -2.027,1.746 -4.155,3.283 -6.377,4.941 -0.639,0.479 -1.271,1.398 -2.209,1.301 -1.042,-2.027 1.318,-3.291 2.342,-4.162 8.953,-7.646 17.389,-16.217 25.759,-24.588 9.556,-9.557 19.487,-18.957 29.4,-28.096 18.706,-17.26 38.442,-33.482 57.894,-50.092 1.22,-1.039 2.917,-2.141 3.256,-3.902 -1.768,-1.076 -4.366,0.076 -6.247,0.521 -6.042,1.418 -12.11,3.418 -18.994,4.033 2.366,-1.482 5.112,-2.07 7.81,-2.859 2.599,-0.771 5.158,-1.92 7.934,-2.607 2.724,-0.676 5.605,-1.406 8.454,-2.209 2.77,-0.787 5.764,-1.197 8.193,-2.34 1.529,-0.721 2.735,-2.189 4.302,-3.512 4.237,-3.609 8.36,-7.244 12.482,-10.932 5.46,-4.896 11.151,-10.039 16.265,-14.961 9.143,-8.812 19.125,-16.955 27.319,-27.318 0.42,-0.533 2.387,-4.211 3.644,-3.775 2.108,0.729 -0.216,3.846 -0.78,4.555 -7.443,9.326 -16.361,16.957 -24.979,25.109 -2.449,2.314 -5.133,4.439 -7.544,6.766 -2.43,2.334 -4.896,4.738 -7.417,6.891 -3.83,3.262 -7.498,6.721 -11.32,10.152 -1.181,1.055 -2.966,2.074 -3.121,3.9 1.146,0.992 2.723,0.291 3.9,0 6.458,-1.613 13.136,-3.051 19.646,-4.68 13.104,-3.299 26.604,-5.779 40.199,-8.455 16.172,-3.199 33.001,-5.699 49.96,-8.461 5.631,-0.922 11.265,-2.021 16.912,-2.469 2.834,-0.229 5.684,-0.893 8.583,-1.17 8.597,-0.842 17.38,-2.209 26.277,-2.994 5.841,-0.52 11.723,-1.438 17.699,-1.822 5.876,-0.377 11.745,-1.523 17.562,-1.822 8.681,-0.449 18.059,-1.414 27.316,-1.953 2.925,-0.172 5.851,-0.779 8.716,-0.91 8.643,-0.389 18.127,-1.219 25.762,-3.508 2.288,-0.689 5.905,-1.822 5.981,-3.641 0.082,-1.875 -3.438,-3.74 -5.466,-4.688 -6.849,-3.219 -15.577,-5.311 -23.549,-6.895 -5.732,-1.143 -11.489,-2.225 -17.302,-2.992 -2.887,-0.393 -5.805,-0.889 -8.714,-1.432 -3.01,-0.572 -6.148,-0.484 -9.235,-0.912 -11.993,-1.664 -24.646,-2.18 -37.466,-3.123 -12.796,-0.941 -26.312,-0.758 -39.426,-0.91 -9.84,-0.115 -19.701,0.119 -29.66,0.52 -9.631,0.385 -19.595,0.973 -28.877,1.561 -6.358,0.404 -12.62,0.965 -18.864,1.434 -6.17,0.461 -12.594,0.525 -19.124,1.174 -1.467,0.137 -2.898,0.602 -4.423,0.646 -4.783,0.146 -9.346,0.877 -13.925,1.301 -10.328,0.941 -21.058,2.434 -31.743,3.775 -1.723,0.209 -3.573,0.23 -3.642,-1.172 -0.086,-1.914 4.543,-1.879 6.242,-2.084 7.689,-0.943 14.997,-1.816 22.507,-2.34 2.478,-0.18 4.915,-0.709 7.417,-0.91 22.979,-1.881 45.501,-3.666 69.341,-5.203 2.396,-0.156 5.131,-0.346 7.81,-0.525 15.775,-1.074 34.697,-0.645 51.775,-0.645 10.688,0 20.051,0.268 29.795,1.17 5.068,0.463 10.202,0.586 15.353,1.037 20.69,1.832 39.011,3.936 57.501,8.197 4.259,0.977 8.609,2.234 12.875,3.512 4.18,1.248 8.664,2.974 11.191,5.205 z" /><path
       inkscape:connector-curvature="0"
       style="fill:#000000"
       id="path3060"
       d="m 459.06855,315.32117 c 1.413,-0.566 2.386,3.158 1.045,3.51 -1.285,0.33 -2.608,-2.897 -1.045,-3.51 z" /></g><g
     style="font-size:26.62696648px;font-style:normal;font-variant:normal;font-weight:bold;font-stretch:normal;line-height:125%;letter-spacing:0px;word-spacing:0px;fill:#000000;fill-opacity:1;stroke:none;font-family:BankGothic Md BT;-inkscape-font-specification:BankGothic Md BT Bold"
     id="g3062"><path
       d="m 207.71924,285.94408 -8.61997,0 0,8.69797 8.61997,0 0,-2.95133 3.19835,0.66308 0,1.62518 c -2e-5,1.25681 -0.23838,2.1149 -0.71508,2.57428 -0.46807,0.45072 -1.36517,0.67608 -2.6913,0.67608 l -8.20391,0 c -1.33482,0 -2.23626,-0.22536 -2.7043,-0.67608 -0.46806,-0.45938 -0.70208,-1.31747 -0.70208,-2.57428 l 0,-7.24181 c 0,-1.24813 0.23402,-2.10189 0.70208,-2.56128 0.46804,-0.45938 1.36948,-0.68907 2.7043,-0.68908 l 8.20391,0 c 1.32613,1e-5 2.22323,0.2297 2.6913,0.68908 0.4767,0.45939 0.71506,1.31315 0.71508,2.56128 l 0,1.30015 -3.19835,0.50705 0,-2.60029"
       style=""
       id="path3064" /><path
       d="m 217.22329,286.73717 c 0,-1.24813 0.23403,-2.10189 0.70208,-2.56128 0.46805,-0.45938 1.36948,-0.68907 2.7043,-0.68908 l 10.11513,0 c 1.3348,1e-5 2.23623,0.2297 2.7043,0.68908 0.46803,0.45939 0.70206,1.31315 0.70208,2.56128 l 0,7.24181 c -2e-5,1.25681 -0.23405,2.1149 -0.70208,2.57428 -0.46807,0.45072 -1.3695,0.67608 -2.7043,0.67608 l -10.11513,0 c -1.33482,0 -2.23625,-0.22536 -2.7043,-0.67608 -0.46805,-0.45938 -0.70208,-1.31747 -0.70208,-2.57428 l 0,-7.24181 m 3.19836,7.90488 10.54418,0 0,-8.69797 -10.54418,0 0,8.69797"
       style=""
       id="path3066" /><path
       d="m 240.88593,297.22934 0,-13.74253 2.58729,0 6.47472,8.30792 6.33171,-8.30792 2.56128,0 0,13.74253 -2.96433,0 0,-8.48995 c -2e-5,-0.16467 0.009,-0.3727 0.026,-0.62407 0.026,-0.25135 0.0563,-0.53305 0.091,-0.84509 -0.17337,0.35538 -0.32505,0.65008 -0.45505,0.8841 -0.13003,0.22537 -0.24704,0.41172 -0.35104,0.55906 l -5.16157,6.86477 -0.63707,0 -5.17458,-6.89077 c -0.19069,-0.26002 -0.35538,-0.50272 -0.49405,-0.72808 -0.13002,-0.23402 -0.23837,-0.45938 -0.32504,-0.67608 0.026,0.28604 0.0433,0.54607 0.052,0.78009 0.0173,0.23403 0.026,0.45939 0.026,0.67607 l 0,8.48995 -2.58729,0"
       style=""
       id="path3068" /><path
       d="m 265.53668,297.22934 0,-13.74253 2.58729,0 6.47472,8.30792 6.33171,-8.30792 2.56128,0 0,13.74253 -2.96433,0 0,-8.48995 c -2e-5,-0.16467 0.009,-0.3727 0.026,-0.62407 0.026,-0.25135 0.0563,-0.53305 0.091,-0.84509 -0.17337,0.35538 -0.32505,0.65008 -0.45505,0.8841 -0.13003,0.22537 -0.24704,0.41172 -0.35104,0.55906 l -5.16157,6.86477 -0.63707,0 -5.17458,-6.89077 c -0.19069,-0.26002 -0.35538,-0.50272 -0.49405,-0.72808 -0.13002,-0.23402 -0.23837,-0.45938 -0.32504,-0.67608 0.026,0.28604 0.0433,0.54607 0.052,0.78009 0.0173,0.23403 0.026,0.45939 0.026,0.67607 l 0,8.48995 -2.58729,0"
       style=""
       id="path3070" /><path
       d="m 293.41178,283.48681 0,11.15524 9.11402,0 0,-11.15524 3.18535,0 0,10.49217 c -2e-5,1.25681 -0.23404,2.1149 -0.70208,2.57428 -0.46807,0.45072 -1.3695,0.67608 -2.7043,0.67608 l -8.68497,0 c -1.32615,0 -2.22758,-0.22536 -2.7043,-0.67608 -0.46805,-0.45938 -0.70208,-1.31747 -0.70208,-2.57428 l 0,-10.49217 3.19836,0"
       style=""
       id="path3072" /><path
       d="m 312.70593,297.22934 0,-13.74253 2.18424,0 9.67308,8.0999 c 0.32936,0.2687 0.61972,0.5244 0.8711,0.76709 0.25134,0.23403 0.48104,0.47672 0.68908,0.72808 -0.052,-0.77142 -0.0867,-1.31748 -0.10402,-1.63818 -0.0174,-0.3207 -0.026,-0.56773 -0.026,-0.74109 l 0,-7.2158 2.87332,0 0,13.74253 -2.18424,0 -10.08913,-8.48995 c -0.2427,-0.21668 -0.45505,-0.4117 -0.63707,-0.58506 -0.18202,-0.17334 -0.35104,-0.35103 -0.50705,-0.53306 0.0433,0.42472 0.0737,0.82777 0.091,1.20913 0.026,0.37272 0.039,0.69776 0.039,0.97511 l 0,7.42383 -2.87332,0"
       style=""
       id="path3074" /><path
       d="m 335.87451,297.22934 0,-13.74253 3.19836,0 0,13.74253 -3.19836,0"
       style=""
       id="path3076" /><path
       d="m 357.65194,285.94408 -8.61996,0 0,8.69797 8.61996,0 0,-2.95133 3.19836,0.66308 0,1.62518 c -2e-5,1.25681 -0.23838,2.1149 -0.71508,2.57428 -0.46807,0.45072 -1.36517,0.67608 -2.6913,0.67608 l -8.20391,0 c -1.33482,0 -2.23626,-0.22536 -2.7043,-0.67608 -0.46806,-0.45938 -0.70209,-1.31747 -0.70208,-2.57428 l 0,-7.24181 c -1e-5,-1.24813 0.23402,-2.10189 0.70208,-2.56128 0.46804,-0.45938 1.36948,-0.68907 2.7043,-0.68908 l 8.20391,0 c 1.32613,1e-5 2.22323,0.2297 2.6913,0.68908 0.4767,0.45939 0.71506,1.31315 0.71508,2.56128 l 0,1.30015 -3.19836,0.50705 0,-2.60029"
       style=""
       id="path3078" /><path
       d="m 370.49736,291.74273 6.01967,0 -2.96433,-5.59062 -3.05534,5.59062 m -6.14968,5.48661 7.77486,-13.74253 3.08135,0 7.87887,13.74253 -3.5884,0 -1.65118,-3.00333 -8.71097,0 -1.59918,3.00333 -3.18535,0"
       style=""
       id="path3080" /><path
       d="m 392.09277,285.94408 0,11.28526 -3.19835,0 0,-11.28526 -6.30571,0 0,-2.45727 15.83577,0 0,2.45727 -6.33171,0"
       style=""
       id="path3082" /><path
       d="m 402.33792,297.22934 0,-13.74253 3.19836,0 0,13.74253 -3.19836,0"
       style=""
       id="path3084" /><path
       d="m 412.29702,286.73717 c 0,-1.24813 0.23402,-2.10189 0.70208,-2.56128 0.46805,-0.45938 1.36948,-0.68907 2.7043,-0.68908 l 10.11513,0 c 1.3348,1e-5 2.23623,0.2297 2.7043,0.68908 0.46803,0.45939 0.70206,1.31315 0.70208,2.56128 l 0,7.24181 c -2e-5,1.25681 -0.23405,2.1149 -0.70208,2.57428 -0.46807,0.45072 -1.3695,0.67608 -2.7043,0.67608 l -10.11513,0 c -1.33482,0 -2.23625,-0.22536 -2.7043,-0.67608 -0.46806,-0.45938 -0.70208,-1.31747 -0.70208,-2.57428 l 0,-7.24181 m 3.19836,7.90488 10.54417,0 0,-8.69797 -10.54417,0 0,8.69797"
       style=""
       id="path3086" /><path
       d="m 435.95965,297.22934 0,-13.74253 2.18425,0 9.67307,8.0999 c 0.32936,0.2687 0.61972,0.5244 0.8711,0.76709 0.25135,0.23403 0.48104,0.47672 0.68908,0.72808 -0.052,-0.77142 -0.0867,-1.31748 -0.10401,-1.63818 -0.0174,-0.3207 -0.026,-0.56773 -0.026,-0.74109 l 0,-7.2158 2.87332,0 0,13.74253 -2.18424,0 -10.08912,-8.48995 c -0.2427,-0.21668 -0.45506,-0.4117 -0.63707,-0.58506 -0.18203,-0.17334 -0.35105,-0.35103 -0.50706,-0.53306 0.0433,0.42472 0.0737,0.82777 0.091,1.20913 0.026,0.37272 0.039,0.69776 0.039,0.97511 l 0,7.42383 -2.87332,0"
       style=""
       id="path3088" /><path
       d="m 471.03756,285.89208 -8.997,0 0,2.95133 8.56795,0 c 1.34347,0 2.24924,0.2297 2.71731,0.68907 0.4767,0.45939 0.71506,1.31315 0.71508,2.56129 l 0,1.88521 c -2e-5,1.24814 -0.23838,2.1019 -0.71508,2.56128 -0.46807,0.45939 -1.37384,0.68908 -2.71731,0.68908 l -8.48994,0 c -1.34349,0 -2.25359,-0.22969 -2.73031,-0.68908 -0.46805,-0.45938 -0.70208,-1.31314 -0.70207,-2.56128 l 0,-0.37704 2.82131,-0.58507 0,1.62518 9.71208,0 0,-3.13335 -8.56795,0 c -1.33482,1e-5 -2.23626,-0.22968 -2.7043,-0.68907 -0.46806,-0.45938 -0.70209,-1.31314 -0.70208,-2.56129 l 0,-1.52117 c -10e-6,-1.24813 0.23402,-2.10189 0.70208,-2.56128 0.46804,-0.45938 1.36948,-0.68907 2.7043,-0.68908 l 7.80087,0 c 1.29146,1e-5 2.17989,0.22104 2.66529,0.66307 0.49404,0.44206 0.74107,1.22648 0.74109,2.35326 l 0,0.28604 -2.82132,0.66307 0,-1.56017"
       style=""
       id="path3090" /></g></g></svg>